HIERARCHY
ROOT hip
{
	OFFSET 0.000000 0.000000 0.000000 
	CHANNELS 6 Xposition Yposition Zposition Xrotation Zrotation Yrotation
	JOINT abdomen
	{
		OFFSET 0.000000 3.402643 0.000000 
		CHANNELS 3 Xrotation Zrotation Yrotation
		JOINT chest
		{
			OFFSET 0.000000 8.438565 -0.680529 
			CHANNELS 3 Xrotation Zrotation Yrotation
			JOINT neck
			{
				OFFSET 0.000000 10.207942 -0.272212 
				CHANNELS 3 Xrotation Zrotation Yrotation
				JOINT head
				{
					OFFSET 0.000000 3.130431 0.000000 
					CHANNELS 3 Xrotation Zrotation Yrotation
					End Site
					{
						OFFSET 0.000000 3.130435 0.000000 
					}
				}
			}
			JOINT lCollar
			{
				OFFSET 3.470700 6.669187 -0.816635 
				CHANNELS 3 Yrotation Zrotation Xrotation
				JOINT lShldr
				{
					OFFSET 3.198488 0.000000 0.000000 
					CHANNELS 3 Zrotation Yrotation Xrotation
					JOINT lForeArm
					{
						OFFSET 10.139888 0.000000 0.000000 
						CHANNELS 3 Yrotation Zrotation Xrotation
						JOINT lHand
						{
							OFFSET 8.370511 0.000000 0.000000 
							CHANNELS 3 Zrotation Yrotation Xrotation
							End Site
							{
								OFFSET 4.083176 0.000000 0.000000 
							}
						}
					}
				}
			}
			JOINT rCollar
			{
				OFFSET -3.470700 6.669187 -0.816635 
				CHANNELS 3 Yrotation Zrotation Xrotation
				JOINT rShldr
				{
					OFFSET -3.198488 0.000000 0.000000 
					CHANNELS 3 Zrotation Yrotation Xrotation
					JOINT rForeArm
					{
						OFFSET -10.139888 0.000000 0.000000 
						CHANNELS 3 Yrotation Zrotation Xrotation
						JOINT rHand
						{
							OFFSET -8.370511 0.000000 0.000000 
							CHANNELS 3 Zrotation Yrotation Xrotation
							End Site
							{
								OFFSET -4.083176 0.000000 0.000000 
							}
						}
					}
				}
			}
		}
	}
	JOINT lThigh
	{
		OFFSET 5.308129 -1.633274 1.361059 
		CHANNELS 3 Xrotation Zrotation Yrotation
		JOINT lShin
		{
			OFFSET -2.041588 -20.007561 0.000000 
			CHANNELS 3 Xrotation Zrotation Yrotation
			JOINT lFoot
			{
				OFFSET 0.000000 -19.190928 -1.224953 
				CHANNELS 3 Xrotation Yrotation Zrotation
				End Site
				{
					OFFSET 0.000000 -2.449906 4.627600 
				}
			}
		}
	}
	JOINT rThigh
	{
		OFFSET -5.308129 -1.633274 1.361059 
		CHANNELS 3 Xrotation Zrotation Yrotation
		JOINT rShin
		{
			OFFSET 2.041588 -20.007561 0.000000 
			CHANNELS 3 Xrotation Zrotation Yrotation
			JOINT rFoot
			{
				OFFSET 0.000000 -19.190928 -1.224953 
				CHANNELS 3 Xrotation Yrotation Zrotation
				End Site
				{
					OFFSET 0.000000 -2.449906 4.627600 
				}
			}
		}
	}
}
MOTION
Frames: 8
Frame Time: 0.016667
17.463104 52.785564 32.411316 -3.919451 -15.816437 -62.922661 28.628786 0.097573 -2.363278 25.089901 10.898079 -5.498412 -8.603516 0.000000 0.000000 12.975657 -15.163980 31.240931 -2.959003 -0.106918 -0.009753 31.525776 -19.495161 -116.516113 -49.855804 -29.215059 -5.057926 -5.837493 -20.649515 6.472995 2.939483 0.086889 -0.019520 -47.734734 13.403368 -90.168846 56.969105 21.490398 -2.212810 -14.683667 23.413805 6.814261 1.425694 24.784840 9.443120 28.204704 -5.372758 1.792948 15.969672 -3.819528 -12.452822 3.756377 -12.914459 -18.785667 27.751005 -0.228261 2.860052 2.174530 9.112757 5.895443 
17.257559 52.435219 32.011627 -4.041266 -15.649526 -61.137783 28.628786 0.097573 -2.363278 24.827171 11.420628 -5.099916 -8.603516 0.000000 0.000000 14.980369 -15.285489 31.230961 -2.959003 -0.106918 -0.009753 29.873144 -18.629520 -118.092888 -56.727005 -31.502882 -7.830106 -5.629640 -20.857761 6.257185 2.939483 0.086889 -0.019520 -46.690853 12.088084 -91.703461 62.922680 23.314945 -3.368625 -15.080520 23.056757 7.362838 0.614036 24.831085 9.658936 29.327961 -5.392536 1.754764 13.988299 -3.944640 -12.208151 2.906628 -13.147895 -17.082912 26.979929 -0.267089 3.075505 2.144141 9.479672 5.636926 
16.999994 51.880363 31.559237 -4.299033 -15.413879 -59.131844 28.628786 0.097573 -2.363278 24.211767 11.787373 -4.707465 -8.603516 0.000000 0.000000 16.720978 -14.990003 31.088524 -2.959003 -0.106918 -0.009753 28.447124 -17.583158 -119.324265 -63.338665 -33.398518 -10.979833 -5.233610 -21.371939 5.741203 2.939483 0.086889 -0.019520 -45.684101 10.477560 -92.845047 68.611015 24.883482 -5.000572 -15.811010 22.869482 8.082071 -0.411078 24.888853 9.104933 30.650433 -5.540291 1.470968 11.171979 -4.052996 -12.260804 2.223497 -13.478357 -15.692498 27.084696 -0.237630 3.163687 1.119971 9.674675 5.926952 
16.742336 51.325077 31.106543 -4.567621 -15.166435 -57.121658 28.628786 0.097573 -2.363278 23.589586 12.153816 -4.324773 -8.603516 0.000000 0.000000 18.460691 -14.676978 30.947084 -2.959003 -0.106918 -0.009753 27.004606 -16.567432 -120.587944 -70.202652 -34.974823 -14.446231 -4.832538 -21.890160 5.230527 2.939483 0.086889 -0.019520 -44.639458 8.895397 -94.007736 74.414818 26.299479 -6.822097 -16.546280 22.687267 8.809044 -1.436043 24.938898 8.549989 31.953421 -5.685923 1.184178 8.341037 -4.154830 -12.318383 1.539779 -13.790719 -14.287328 27.189528 -0.198205 3.254139 0.079472 9.864224 6.210530 
16.436167 50.552570 30.503056 -5.302060 -14.948042 -54.878277 28.628786 0.097573 -2.363278 22.772804 11.985347 -3.853529 -8.603516 0.000000 0.000000 19.411545 -13.801402 30.967510 -2.959003 -0.106918 -0.009753 25.975636 -15.576033 -121.440712 -76.429176 -36.082073 -17.522528 -4.253505 -22.375706 4.890375 2.939483 0.086889 -0.019520 -43.565102 7.189445 -94.924034 78.769920 27.365185 -8.371936 -17.547167 22.736797 9.428358 -2.529670 24.584787 7.289232 33.482029 -5.804671 0.686141 5.167117 -3.822823 -12.594090 1.160844 -14.146775 -13.335461 28.175001 -0.217516 3.286934 -2.068771 9.748796 6.510274 
16.130028 49.780064 29.899607 -6.031923 -14.706461 -52.639473 28.628786 0.097573 -2.363278 21.962305 11.825648 -3.382297 -8.603516 0.000000 0.000000 20.354033 -12.916307 31.012505 -2.959003 -0.106918 -0.009753 24.926003 -14.591702 -122.316734 -82.794632 -36.914177 -20.770044 -3.668857 -22.866676 4.538849 2.939483 0.086889 -0.019520 -42.470589 5.497804 -95.863892 83.196884 28.339016 -10.016979 -18.548363 22.797047 10.046087 -3.593338 24.219404 6.055111 34.990509 -5.918360 0.166594 1.989841 -3.456072 -12.834494 0.769926 -14.495658 -12.370299 29.179155 -0.247166 3.337326 -4.225966 9.626573 6.829461 
15.840874 49.006142 29.314302 -6.847484 -14.558521 -50.608292 28.628786 0.097573 -2.363278 21.702057 11.508875 -2.918707 -8.603516 0.000000 0.000000 20.246119 -11.903987 31.080090 -2.959003 -0.106918 -0.009753 24.507975 -13.364389 -123.467857 -87.373344 -37.553909 -23.003174 -3.278600 -22.953766 4.379716 2.939483 0.086889 -0.019520 -42.046833 4.164572 -96.377449 85.727440 28.653296 -11.016628 -19.579895 23.109856 10.439548 -4.296984 23.767923 4.633736 36.315399 -5.952076 -0.215693 -1.035398 -2.918771 -12.815693 0.770888 -14.902387 -11.779047 30.665493 -0.239014 3.317633 -6.601712 9.478253 7.311023 
15.551648 48.232296 28.728888 -7.653318 -14.392508 -48.582897 28.628786 0.097573 -2.363278 21.426786 11.191119 -2.457192 -8.603516 0.000000 0.000000 20.130980 -10.894338 31.158373 -2.959003 -0.106918 -0.009753 24.056274 -12.134912 -124.619659 -92.010193 -38.053734 -25.296738 -2.880600 -23.030296 4.224601 2.939483 0.086889 -0.019520 -41.603687 2.839344 -96.897568 88.272057 28.938843 -12.040103 -20.622459 23.422623 10.809234 -4.970565 23.288488 3.260342 37.620216 -5.983906 -0.588604 -4.072357 -2.393613 -12.794802 0.750620 -15.288721 -11.194514 32.131886 -0.276115 3.285688 -8.967057 9.309515 7.803703 
